<?xml version="1.0" encoding="UTF-8"?>
<svg id="Livello_1" data-name="Livello 1" xmlns="http://www.w3.org/2000/svg" viewBox="0 0 400 62.38">
  <defs>
    <style>
      .cls-1 {
        fill: #ff6430;
      }

      .cls-2 {
        fill: #fff;
      }
    </style>
  </defs>
  <path class="cls-2" d="M372.95,36.43l-.07,24.89-11.81.07-.05-25.35c0-2.23-.85-4.79-2.48-6.21-2.58-2.24-6.67-2.35-9.34-.27-2.3,1.78-3.29,4.83-3.3,7.73l-.06,24.05-11.89.04V19.02s10.8-.02,10.8-.02l.57,5.16c3.76-4.72,8.53-6.6,14.16-6.08,4.63.43,8.62,2.67,11.04,6.74,5.04-8.07,17.95-8.72,24.06-3.43,3.32,2.87,5.28,7.17,5.3,11.75l.14,28.2-11.88.04-.06-25.69c0-2.1-.85-4.54-2.41-5.87-2.6-2.23-6.63-2.36-9.37-.3-1.98,1.48-3.33,4.21-3.34,6.9Z"/>
  <path class="cls-2" d="M202.84,52.98c4.53.23,8.46-1.48,10.58-5.57l10.6,2.39c-4.55,11.5-18.04,14.72-28.71,11.26-9.46-3.07-15.1-11.85-14.64-21.7.35-7.48,3.69-14.33,10.27-18.15,6.91-4.01,15.41-4.25,22.64-.86,8.53,3.99,12.42,13.88,11.18,23.03l-32.19.02c.57,5.53,4.76,9.3,10.28,9.58ZM213.16,35.64c-.83-5.29-4.95-8.45-9.89-8.52-5.21-.07-9.61,3.24-10.53,8.54l20.42-.02Z"/>
  <path class="cls-2" d="M86.98,61.04c-7.1,2.25-14.58,1.63-20.9-1.86-7.02-3.88-10.8-11.39-10.7-19.4s4.26-15.38,11.5-19.01,16.17-3.76,23.53,0c7.31,3.74,11.36,11.29,11.4,19.41.05,9.48-5.54,17.91-14.82,20.85ZM90.2,40.15c0-6.42-5.21-11.62-11.63-11.62s-11.63,5.2-11.63,11.62,5.21,11.62,11.63,11.62,11.63-5.2,11.63-11.62Z"/>
  <path class="cls-2" d="M325.7,18.99v42.36s-10.71.02-10.71.02l-.73-5.89c-5.22,8.69-18.78,8.78-24.68,2.32-2.84-3.11-4.53-7.39-4.54-11.77l-.07-27.02h11.98s.12,25.73.12,25.73c.02,3.91,2.88,6.59,6.4,7.2,5.33.92,10.1-2.76,10.15-8.39l.18-24.5,11.9-.07Z"/>
  <path class="cls-2" d="M143.01,52.26c-2.64,10.67-18.63,11.67-27.77,8.42-5.12-1.82-8.65-5.92-9.38-11.3l10.84-1.76c1.26,6.26,8.1,6.92,12.52,5.37,1.75-.62,2.73-2.12,2.63-3.82-.08-1.45-1.35-3.02-3.06-3.41l-8.52-1.94c-3.72-.85-7.47-2.05-10.2-4.81s-3.4-7.16-2.35-11.29c.85-3.32,3.71-6.39,7.56-7.91,9.68-3.83,25.6-1.96,27.09,10.11l-10.22,1.69c-1.76-5.29-7.64-6.29-11.85-4.14-1.19.61-1.9,2.11-1.81,3.35.41,5.45,15.31,2.9,21.94,9.64,2.99,3.04,3.67,7.42,2.59,11.8Z"/>
  <path class="cls-2" d="M176.43,51.1l-.02,9.75c-4.29,1.26-8.35,1.59-12.62.77-5.98-1.16-10.1-6.07-10.13-12.28l-.12-20.78-6.74-.05v-9.47s6.76-.11,6.76-.11l.02-12.36h11.72s.06,12.39.06,12.39l10.97.08v9.45s-11.03.06-11.03.06l.02,18.28c0,2.58,1.69,4.69,4.29,4.9,2.22.17,4.18-.16,6.82-.63Z"/>
  <path class="cls-2" d="M243.64,61.35l-11.99.02V19.04s11.1-.07,11.1-.07l.32,7.97c2.97-6.52,8.96-9.82,15.8-8.24v11.17c-2.36-.26-4.35-.61-6.48-.24-4.98.86-8.63,4.96-8.66,10.15l-.1,21.57Z"/>
  <rect class="cls-2" x="249.69" y="34.21" width="42.48" height="11.96" transform="translate(230.7 311.12) rotate(-89.99)"/>
  <path class="cls-2" d="M270.66,13.9c-4.19-.02-6.95-3.21-7.02-6.88s2.9-6.76,6.82-7c4.16-.26,7.34,2.66,7.58,6.59s-2.81,7.31-7.38,7.29Z"/>
  <g>
    <path class="cls-2" d="M52.14,24.77c-.88,12.9-11.05,20.57-23.41,20.64l-14.26.08-.05,15.86-14.38.03L0,.72l31.36.14c6.27.03,11.83,3.03,15.93,7.42,3.81,4.76,5.26,10.4,4.85,16.49ZM25.2,31.97l11.44-6.37c.79-.44,1.62-1.93,1.52-2.68-.09-.67-.93-1.85-1.59-2.21l-8.25-4.46-9.08-5c-1.05-.58-2.28-.8-3.21-.29-.77.42-1.51,1.62-1.51,2.6l.02,19.55c0,1.39,1.68,3.42,3.22,2.85,2.57-.95,4.89-2.57,7.44-3.99Z"/>
    <path class="cls-1" d="M25.2,31.97c-2.56,1.42-4.87,3.04-7.44,3.99-1.53.57-3.21-1.46-3.22-2.85l-.02-19.55c0-.98.74-2.17,1.51-2.6.93-.51,2.16-.29,3.21.29l9.08,5,8.25,4.46c.66.36,1.5,1.54,1.59,2.21.1.75-.73,2.24-1.52,2.68l-11.44,6.37Z"/>
  </g>
</svg>